<svg width="91" height="91" viewBox="0 0 91 91" fill="none" xmlns="http://www.w3.org/2000/svg">
<path fill-rule="evenodd" clip-rule="evenodd" d="M56.3377 73.9846C56.3723 74.3956 56.407 74.8073 56.4554 75.2163C56.4978 75.6123 56.6746 75.9588 56.9645 76.2345C57.3464 76.6164 57.8979 76.8285 58.4494 76.7578C59.4111 76.6305 60.0828 75.7325 59.9768 74.7779C59.899 74.0778 59.8353 73.3778 59.7858 72.6778C59.7745 72.4504 59.7814 72.2229 59.7883 71.9991C59.7899 71.9446 59.7916 71.8904 59.7929 71.8363C59.8212 71.5393 59.8495 71.2424 59.9061 70.9454C60.0263 70.4009 60.1748 69.8847 60.3445 69.3615C60.6627 68.4493 61.0516 67.5654 61.4688 66.6957C61.9355 65.7764 62.4375 64.8784 62.9961 64.0087C63.88 62.6864 64.8841 61.4419 65.9094 60.2327L65.9165 60.2256C65.9258 60.2163 65.9382 60.2039 65.9476 60.1904C66.894 59.1224 67.9362 58.1503 68.9853 57.1851C70.1591 56.2093 71.3188 55.2476 72.5703 54.4061C73.4684 53.8193 74.3947 53.2889 75.3493 52.8152C76.8625 52.0939 78.4323 51.5424 80.0162 50.9908C81.1758 50.6231 82.3355 50.2554 83.4951 49.9019C83.6454 49.8559 83.7959 49.8094 83.9466 49.7629C84.8377 49.4877 85.7355 49.2105 86.6488 49.0109C86.7163 49.0206 86.7839 49.0302 86.8491 49.0376C86.8796 49.0411 86.9095 49.044 86.9388 49.0463C87.7873 49.1029 88.5086 48.8483 88.9611 48.0846C89.2652 47.5543 89.2581 46.8684 88.954 46.338C88.6782 45.836 88.1974 45.5532 87.6458 45.4542C87.3984 45.4047 87.1509 45.3976 86.9034 45.4047C86.7337 45.3481 86.5569 45.2986 86.3872 45.2421C84.5266 44.5296 82.7202 43.6819 80.9215 42.8378L80.8011 42.7813C79.6061 42.1803 78.4464 41.5439 77.3292 40.8226C76.4524 40.2287 75.618 39.5781 74.8119 38.8852C73.1509 37.4087 71.631 35.7817 70.1102 34.1538C69.7665 33.7858 69.4227 33.4179 69.0773 33.0515C67.7125 31.5878 66.3549 30.1171 64.9972 28.6463C64.0497 27.5573 63.1446 26.4542 62.3385 25.2663C61.9849 24.7147 61.6668 24.1561 61.3698 23.5763C61.1718 23.1379 60.9879 22.6995 60.8253 22.2398C60.7404 21.9428 60.6627 21.653 60.599 21.3489C60.5637 21.1297 60.5354 20.9034 60.5142 20.6701C60.5142 20.633 60.5134 20.5951 60.5127 20.5567C60.5111 20.478 60.5095 20.3973 60.5142 20.3166C60.5283 20.1469 60.5496 19.9842 60.5778 19.8145C60.5876 19.7658 60.6007 19.7204 60.6148 19.6715C60.6212 19.6494 60.6278 19.6265 60.6344 19.6023C60.6909 19.4609 60.7546 19.3124 60.8182 19.1781C61.3486 18.0679 60.3657 16.7174 59.1777 16.7456C58.7747 16.7527 58.3858 16.8729 58.0676 17.1204C57.7635 17.3538 57.5585 17.6719 57.4524 18.0184C56.3564 20.5287 57.2544 23.4632 58.4919 25.7471C59.6515 27.8826 61.2142 29.7847 62.8547 31.5666C64.2689 33.094 65.676 34.6142 67.1044 36.1274C67.401 36.4426 67.6967 36.7596 67.9927 37.0769C69.9482 39.1731 71.9168 41.2834 74.232 42.9722C74.8145 43.3963 75.4109 43.7958 76.0192 44.174C75.3829 44.1069 74.7469 44.0426 74.1118 43.9834C72.2097 43.8066 70.3076 43.644 68.3984 43.5026C66.263 43.3611 64.1416 43.248 62.0062 43.149C58.4282 42.9793 54.8361 42.9086 51.2581 42.8803C48.5122 42.8538 45.7655 42.8396 43.0184 42.8254C37.7084 42.798 32.3972 42.7705 27.0892 42.654C25.7492 42.6257 24.4154 42.5911 23.0816 42.5565C22.4166 42.5393 21.7517 42.5221 21.0859 42.5056C20.6065 42.4942 20.1256 42.4812 19.6439 42.4682L19.6406 42.4682C18.3327 42.433 17.0185 42.3976 15.7119 42.3924L15.6894 42.3922L15.6786 42.3921C13.8372 42.3781 12.0098 42.3642 10.1753 42.3712C9.23483 42.3783 8.2943 42.3853 7.36094 42.3853C6.96787 42.3832 6.57423 42.3842 6.18015 42.3852C5.23427 42.3876 4.28588 42.3899 3.3375 42.35C3.29505 42.35 3.25977 42.3429 3.21733 42.3429C2.57386 42.0813 1.80309 42.2015 1.28689 42.7177L1.2586 42.746C0.579788 43.4531 0.586888 44.535 1.25863 45.2491C1.2657 45.2562 1.27982 45.2703 1.27274 45.2774C1.70406 45.7087 2.27686 45.8148 2.85669 45.8572H2.84254C2.87083 45.8572 2.90618 45.8643 2.93447 45.8643L2.93952 45.8646C2.94217 45.8649 2.94461 45.8654 2.94705 45.8659C2.9549 45.8674 2.96273 45.869 2.97687 45.8643C2.99163 45.8594 3.00643 45.8613 3.01882 45.8629C3.02402 45.8637 3.02933 45.8643 3.03347 45.8643L3.00518 45.8643C4.27874 45.9461 5.56676 45.9361 6.84938 45.9263H6.85042L6.99155 45.9252C7.21392 45.9235 7.43606 45.9219 7.65796 45.9209C8.21196 45.9208 8.76315 45.9152 9.31342 45.9096H9.31627C10.0012 45.9027 10.6846 45.8957 11.3702 45.8996C14.135 45.9208 16.8927 45.9492 19.6575 46.0128C21.1152 46.0432 22.5718 46.0834 24.0287 46.1236L24.0342 46.1237C26.2997 46.1862 28.5657 46.2486 30.8369 46.2744C34.5987 46.3169 38.3605 46.3593 42.1153 46.3663L43.209 46.37H43.2178C46.8938 46.3824 50.5644 46.3947 54.2351 46.4653C56.3281 46.5078 58.4211 46.5643 60.5213 46.628C61.6021 46.6677 62.6801 46.7211 63.7588 46.7746C64.4092 46.8069 65.0598 46.8391 65.7114 46.8684C68.7378 47.0805 71.7642 47.3068 74.7694 47.6108C75.8367 47.7185 76.9007 47.8296 77.9636 47.9512C77.0467 48.2664 76.1389 48.6046 75.2503 48.9827C73.228 49.8453 71.2976 50.9131 69.5298 52.2283C69.4098 52.3157 69.2875 52.402 69.1647 52.4886C68.8604 52.7032 68.5532 52.9198 68.2711 53.1616C68.0625 53.3349 67.8574 53.5081 67.6523 53.6813C67.4473 53.8546 67.2422 54.0278 67.0337 54.2011C66.2841 54.8374 65.5417 55.5093 64.8488 56.2022C63.8659 57.1851 62.9467 58.2175 62.084 59.3064C61.2637 60.3388 60.4576 61.3712 59.7576 62.4955C59.0222 63.6692 58.3716 64.8996 57.8059 66.1724C57.3251 67.2613 56.8796 68.3715 56.5968 69.5312C56.2927 70.7403 56.1655 71.9848 56.2715 73.2364C56.2956 73.485 56.3166 73.7347 56.3377 73.9846ZM65.9476 60.1904C65.9525 60.1835 65.9565 60.1763 65.9589 60.1691C65.9447 60.1832 65.9235 60.2044 65.9165 60.2256C65.9268 60.2139 65.9372 60.2021 65.9476 60.1904Z" fill="white"/>
</svg>
